<?xml version="1.0" encoding="utf-8"?>
<!-- Generator: Adobe Illustrator 28.4.1, SVG Export Plug-In . SVG Version: 6.00 Build 0)  -->
<svg version="1.1" id="Layer_1" xmlns="http://www.w3.org/2000/svg" xmlns:xlink="http://www.w3.org/1999/xlink" x="0px" y="0px"
	 viewBox="0 0 256 256" enable-background="new 0 0 256 256" xml:space="preserve">
<path fill-rule="evenodd" clip-rule="evenodd" d="M99.466,7.091h45.411v22.201h12.109c6.055,0,10.091,4.036,10.091,10.091v46.42
	l-6.055,8.073l62.566,108.985l9.082,39.356c1.009,5.046-5.046,9.082-9.082,5.046l-29.265-27.246l-20.182-35.319
	c-16.146,9.082-33.301,14.128-52.474,14.128s-36.328-5.046-51.465-14.128l-20.182,35.319l-29.265,27.246
	c-4.036,4.036-11.1,0-9.082-5.046l9.082-39.356l23.21-41.374c-15.137-17.155-23.21-40.365-23.21-64.584c0-4.036,0-8.073,1.009-11.1
	h30.274c-1.009,4.036-1.009,7.064-1.009,11.1c0,13.119,4.036,25.228,10.091,36.328l23.21-39.356l-6.055-8.073v-46.42
	c0-6.055,4.036-10.091,10.091-10.091h12.109V7.091H99.466z M105.521,122.131L85.339,158.46c11.1,6.055,23.21,10.091,36.328,10.091
	c13.119,0,26.237-4.036,36.328-10.091l-21.192-36.328l-8.073,10.091c-4.036,5.046-12.109,5.046-16.146,0L105.521,122.131z
	 M102.494,85.803L102.494,85.803c4.036,7.064,11.1,11.1,19.173,11.1s16.146-4.036,19.173-11.1c2.018-3.027,3.027-7.064,3.027-11.1
	c0-12.109-10.091-22.201-22.201-22.201S99.466,62.593,99.466,74.702C99.466,78.739,100.476,82.775,102.494,85.803z"/>
</svg>
