<?xml version="1.0" encoding="utf-8"?>
<!-- Generator: Adobe Illustrator 28.4.1, SVG Export Plug-In . SVG Version: 6.00 Build 0)  -->
<svg version="1.1" id="Layer_1" xmlns="http://www.w3.org/2000/svg" xmlns:xlink="http://www.w3.org/1999/xlink" x="0px" y="0px"
	 viewBox="0 0 256 256" enable-background="new 0 0 256 256" xml:space="preserve">
<g>
	<path fill="#00D2B8" d="M72.151,69.938L55.674,53.461l0.07,119.102l0.197,5.567c0.082,2.619,0.568,5.575,1.378,8.638
		l130.558,46.038l32.636-14.46l0.012-0.04L72.151,69.938"/>
	<path fill="#55DDCA" d="M57.319,186.768l0.008,0.008c-0.008-0.054-0.036-0.114-0.036-0.169
		C57.291,186.662,57.299,186.714,57.319,186.768L57.319,186.768z M220.512,218.346l-32.636,14.46l-130.55-46.03
		c2.494,9.568,8.014,20.323,13.956,26.204l42.606,42.363l94.734,0.123l11.902-37.161L220.512,218.346L220.512,218.346z"/>
	<path fill="#0081C6" d="M4.932,130.107c-4.218,4.503-2.123,13.792,4.668,20.636l29.296,29.539l18.423,6.487
		c-0.811-3.063-1.297-6.019-1.378-8.638l-0.197-5.567l-0.07-119.102L4.932,130.107z"/>
	<path fill="#0079B3" d="M188.948,54.991c-3.063-0.783-6.001-1.267-8.664-1.35l-5.883-0.203L55.674,53.453L220.54,218.306h0.014
		l14.479-32.667L188.948,54.991"/>
	<path fill="#00A4E4" d="M188.799,54.959c0.064,0.014,0.114,0.032,0.155,0.038l-0.006-0.006
		C188.912,54.973,188.863,54.973,188.799,54.959L188.799,54.959z M215.137,68.978c-5.983-6.033-16.597-11.516-26.183-13.982
		l46.079,130.642l-14.479,32.667h-0.014l35.384-11.301l0.076-97.01L215.137,68.978L215.137,68.978z"/>
	<path fill="#00D2B8" d="M182.493,36.679L152.963,7.366c-6.829-6.766-16.123-8.871-20.614-4.664L55.674,53.453l118.728-0.016
		l5.883,0.203c2.663,0.084,5.601,0.568,8.664,1.35L182.493,36.679L182.493,36.679z"/>
</g>
</svg>
