<?xml version="1.0" encoding="utf-8"?>
<!-- Generator: Adobe Illustrator 28.4.1, SVG Export Plug-In . SVG Version: 6.00 Build 0)  -->
<svg version="1.1" id="Layer_1" xmlns="http://www.w3.org/2000/svg" xmlns:xlink="http://www.w3.org/1999/xlink" x="0px" y="0px"
	 viewBox="0 0 256 256" enable-background="new 0 0 256 256" xml:space="preserve">
<g>
	<path fill-rule="evenodd" clip-rule="evenodd" fill="#3174B9" d="M105.806,135.42c0,0-6.384,3.715,4.548,4.97
		c13.248,1.513,20.014,1.295,34.608-1.466c0,0,3.842,2.406,9.206,4.487C121.443,157.433,80.105,142.6,105.806,135.42z
		 M101.806,117.121c0,0-7.162,5.301,3.78,6.432c14.152,1.461,25.322,1.581,44.664-2.141c0,0,2.671,2.711,6.873,4.192
		C117.562,137.175,73.501,126.515,101.806,117.121z"/>
	<path fill-rule="evenodd" clip-rule="evenodd" fill="#CA3132" d="M135.514,86.076c8.067,9.286-2.115,17.638-2.115,17.638
		s20.475-10.567,11.071-23.805c-8.78-12.339-15.515-18.47,20.94-39.61C165.409,40.297,108.185,54.585,135.514,86.076z"/>
	<path fill-rule="evenodd" clip-rule="evenodd" fill="#3174B9" d="M178.794,148.956c0,0,4.726,3.896-5.205,6.909
		c-18.884,5.72-78.612,7.445-95.203,0.227c-5.96-2.596,5.222-6.194,8.74-6.954c3.669-0.793,5.763-0.649,5.763-0.649
		c-6.632-4.67-42.868,9.172-18.403,13.144C141.198,172.45,196.096,156.764,178.794,148.956L178.794,148.956z M108.877,98.159
		c0,0-30.378,7.217-10.756,9.841c8.288,1.108,24.797,0.853,40.187-0.438c12.574-1.055,25.195-3.313,25.195-3.313
		s-4.43,1.901-7.64,4.089c-30.853,8.116-90.447,4.336-73.289-3.96C97.08,97.36,108.877,98.159,108.877,98.159L108.877,98.159z
		 M163.376,128.618c31.361-16.293,16.861-31.953,6.737-29.842c-2.475,0.517-3.586,0.964-3.586,0.964s0.923-1.445,2.679-2.066
		c20.024-7.037,35.421,20.76-6.456,31.768C162.75,129.442,163.232,129.007,163.376,128.618z"/>
	<path fill-rule="evenodd" clip-rule="evenodd" fill="#CA3132" d="M144.47,6.154c0,0,17.364,17.376-16.474,44.086
		c-27.137,21.434-6.187,33.651-0.008,47.616c-15.843-14.292-27.464-26.875-19.669-38.584C119.764,42.085,151.477,33.75,144.47,6.154
		L144.47,6.154z"/>
	<path fill-rule="evenodd" clip-rule="evenodd" fill="#3174B9" d="M111.963,172.782c30.098,1.925,76.326-1.069,77.422-15.314
		c0,0-2.105,5.399-24.877,9.683c-25.692,4.836-57.386,4.274-76.177,1.172C88.331,168.322,92.181,171.509,111.963,172.782z"/>
	<path fill-rule="evenodd" clip-rule="evenodd" fill="#CA3132" d="M187.994,198.326h-0.915v-0.513h2.47v0.513h-0.915v2.562h-0.639
		V198.326z M192.922,198.453h-0.011l-0.91,2.433h-0.417l-0.904-2.433h-0.011v2.433h-0.607v-3.075h0.892l0.838,2.176l0.838-2.176
		h0.883v3.075h-0.588v-2.433H192.922L192.922,198.453z M107.03,227.202c-2.838,2.46-5.839,3.844-8.533,3.844
		c-3.838,0-5.921-2.306-5.921-5.996c0-3.995,2.23-6.918,11.154-6.918h3.299v9.07H107.03z M114.865,236.04v-27.36
		c0-6.993-3.988-11.607-13.601-11.607c-5.609,0-10.526,1.385-14.523,3.15l1.151,4.846c3.149-1.156,7.22-2.228,11.216-2.228
		c5.538,0,7.922,2.228,7.922,6.841v3.46h-2.768c-13.453,0-19.523,5.219-19.523,13.066c0,6.761,4,10.605,11.531,10.605
		c4.841,0,8.457-1.998,11.833-4.922l0.614,4.15H114.865z M141.012,236.04h-9.769l-11.763-38.272h8.533l7.3,23.518l1.625,7.066
		c3.683-10.221,6.297-20.597,7.604-30.584h8.297C150.62,210.37,146.618,224.205,141.012,236.04z M178.501,227.202
		c-2.847,2.46-5.847,3.844-8.536,3.844c-3.838,0-5.918-2.306-5.918-5.996c0-3.995,2.231-6.918,11.15-6.918h3.304V227.202z
		 M186.338,236.04v-27.36c0-6.993-4-11.607-13.604-11.607c-5.614,0-10.53,1.385-14.527,3.15l1.151,4.846
		c3.149-1.156,7.228-2.228,11.226-2.228c5.53,0,7.916,2.228,7.916,6.841v3.46h-2.768c-13.454,0-19.521,5.219-19.521,13.066
		c0,6.761,3.992,10.605,11.524,10.605c4.845,0,8.455-1.998,11.84-4.922l0.617,4.15H186.338z M76.148,242.543
		c-2.232,3.263-5.843,5.846-9.791,7.303l-3.869-4.556c3.008-1.543,5.584-4.035,6.783-6.353c1.033-2.066,1.464-4.723,1.464-11.082
		v-43.699h8.327v43.096C79.063,235.757,78.383,239.194,76.148,242.543z"/>
</g>
</svg>
