<?xml version="1.0" encoding="utf-8"?>
<!-- Generator: Adobe Illustrator 28.4.1, SVG Export Plug-In . SVG Version: 6.00 Build 0)  -->
<svg version="1.1" id="Layer_1" xmlns="http://www.w3.org/2000/svg" xmlns:xlink="http://www.w3.org/1999/xlink" x="0px" y="0px"
	 viewBox="0 0 256 256" enable-background="new 0 0 256 256" xml:space="preserve">
<linearGradient id="SVGID_1_" gradientUnits="userSpaceOnUse" x1="64.0442" y1="319.6566" x2="192.2893" y2="191.4115">
	<stop  offset="0" style="stop-color:#0094D4"/>
	<stop  offset="0.7335" style="stop-color:#7970E1"/>
	<stop  offset="1" style="stop-color:#7F6EE2"/>
</linearGradient>
<path fill="url(#SVGID_1_)" d="M255.047,254.923c-12.391-12.461-24.775-24.93-37.161-37.397
	c-12.767-12.851-25.535-25.702-38.302-38.552c-13.648-13.737-27.291-27.479-40.946-41.209c-3.375-3.393-6.789-6.747-10.185-10.118
	c-0.389-0.004-0.623,0.271-0.883,0.496c-1.57,1.547-3.107,3.126-4.682,4.668c-0.284,0.343-0.686,0.618-0.673,1.128
	c-0.007-0.003-0.013-0.008-0.02-0.011c-0.529-0.008-0.798,0.403-1.116,0.714c-1.157,1.135-2.292,2.293-3.444,3.432
	c-0.214,0.255-0.448,0.5-0.423,0.862c-0.006-0.002-0.01-0.006-0.016-0.009c-0.516-0.011-0.785,0.385-1.094,0.691
	c-0.748,0.745-1.503,1.481-2.286,2.188c-0.479,0.755-1.402,1.169-1.646,2.101c-1.129,0.384-1.656,1.489-2.543,2.163
	c-0.673,0.909-1.859,1.401-2.151,2.618c-0.009-0.004-0.015-0.01-0.024-0.013c-0.978,0.193-1.361,1.134-2.075,1.657
	c-0.52,0.69-1.411,1.084-1.645,2.004c-0.832,0.206-1.218,0.984-1.834,1.466c-0.888,0.991-1.964,1.804-2.735,2.903
	c-0.017,0.065-0.011,0.131-0.015,0.197c-0.465,0.035-0.725,0.403-1.023,0.691c-0.925,0.896-1.816,1.825-2.741,2.72
	c-0.3,0.342-0.678,0.634-0.727,1.132c-1.561,0.914-2.816,2.131-3.679,3.735c-0.006-0.002-0.011-0.007-0.017-0.009
	c-0.278,0.025-0.429,0.176-0.454,0.454c-0.183-0.02-0.349,0.054-0.508,0.161c-0.253,0.23-0.52,0.449-0.489,0.843
	c0,0.001,0.001,0.001,0.001,0.002c-0.978,0.333-1.634,0.99-1.999,1.942c-0.849,0.193-1.235,0.983-1.855,1.469
	c-0.828,1.075-2.174,1.704-2.646,3.085c0.001,0.002,0.002,0.003,0.003,0.005c-0.895,0.119-1.25,0.966-1.887,1.433
	c-0.718,0.732-1.47,1.431-2.161,2.187c-0.542,0.594-1.311,1.017-1.537,1.864c-0.09-0.01-0.178-0.003-0.265,0.032
	c-1.191,0.949-2.158,2.132-3.276,3.156c-0.354,0.424-0.859,0.743-0.963,1.338c-0.463,0.021-0.724,0.382-1.02,0.667
	c-0.767,0.739-1.503,1.509-2.27,2.248c-0.321,0.353-0.704,0.663-0.788,1.175c0,0.002,0.001,0.004,0.001,0.006
	c-1.607,0.888-2.719,2.295-3.835,3.699c-0.005,0.076-0.016,0.151-0.031,0.226c0,0,0,0,0,0c-1.312,1.269-2.625,2.538-3.938,3.807
	c-0.281,0.048-0.414,0.274-0.57,0.473c-1.071,1.147-2.141,2.294-3.212,3.441c-0.416,0.353-0.832,0.706-1.248,1.059
	c-1.096,0.835-2.263,1.605-2.772,2.979c-0.003-0.003-0.006-0.005-0.009-0.007c-0.255-0.051-0.451,0.072-0.638,0.219
	c-0.92,0.869-1.79,1.788-2.696,2.67c-0.215,0.255-0.45,0.501-0.423,0.865c-1.192,0.315-1.69,1.473-2.591,2.141
	c-0.461,0.623-1.299,0.968-1.399,1.855c-1.179,0.341-1.766,1.433-2.676,2.113c-0.461,0.806-1.474,1.196-1.657,2.21
	c0,0.001,0,0.001,0.001,0.001c-0.877,0.817-1.754,1.633-2.631,2.449c-0.426,0.49-0.853,0.98-1.279,1.47
	c-0.99,0.927-1.98,1.853-2.97,2.78c-0.169,0.128-0.318,0.266-0.292,0.484c-0.903,0.903-1.807,1.805-2.71,2.708
	c-0.165,0.102-0.329,0.205-0.494,0.307c-0.809,0.869-1.618,1.738-2.426,2.606c-0.007-0.001-0.011-0.005-0.018-0.006
	c-0.396,0.012-0.662,0.263-0.933,0.506c-0.982,0.985-1.971,1.963-2.944,2.957c-0.322,0.329-0.729,0.622-0.726,1.155
	c-0.248-0.047-0.442,0.072-0.627,0.216c-1.33,1.27-2.598,2.602-3.913,3.885c-0.262,0.33-0.658,0.577-0.679,1.052
	c-1.059,0.334-1.552,1.355-2.37,1.981c-4.982,5.001-9.983,9.983-14.962,14.986c-0.386,0.388-0.978,0.687-0.87,1.399
	c11.997,0,23.994,0,35.991,0c3.582,0,7.165,0,10.747,0c2.999,0,5.999,0,8.998,0c1.916,0,3.832,0,5.749,0c1.833,0,3.666,0,5.499,0
	c2.249,0,4.499,0,6.748,0c2.583,0,5.165,0,7.748,0c2.916,0,5.832,0,8.748,0c2.666,0,5.332,0,7.998,0c2.499,0,4.999,0,7.498,0
	c2.583,0,5.165,0,7.748,0c2.499,0,4.999,0,7.498,0c2.749,0,5.499,0,8.248,0c2.499,0,4.999,0,7.498,0c2.749,0,5.499,0,8.248,0
	c2.999,0,5.999,0,8.998,0c3.666,0,7.331,0,10.997,0c3.083,0,6.165,0,9.248,0c1.166,0,2.333,0,3.499,0c0.75,0,1.5,0,2.249,0
	c0.417,0,0.833,0,1.25,0c2.416,0,4.832,0,7.248,0c2.999,0,5.999,0,8.998,0c3.083,0,6.165,0,9.248,0c2.499,0,4.999,0,7.498,0
	c3.083,0,6.165,0,9.248,0c3.416,0,6.832,0,10.247,0c3.249,0,6.498,0,9.748,0c3.832,0,7.665,0.006,11.497-0.016
	c0.238-0.001,0.651,0.302,0.75-0.234C255.534,255.612,255.33,255.207,255.047,254.923z"/>
<linearGradient id="SVGID_00000005988974161756235420000011170779973367911821_" gradientUnits="userSpaceOnUse" x1="0.0014" y1="127.9657" x2="255.749" y2="127.9657">
	<stop  offset="0" style="stop-color:#C758B6"/>
	<stop  offset="1" style="stop-color:#F78809"/>
</linearGradient>
<path fill="url(#SVGID_00000005988974161756235420000011170779973367911821_)" d="M128.281,0.006
	c-1.094,0.465-1.553,1.578-2.369,2.329c-2.442,2.247-4.509,4.857-6.901,7.153c-0.298,0.286-0.594,0.584-0.67,1.021
	c0,0.078,0.011,0.148,0.021,0.218c-2.094,2.094-4.17,4.206-6.104,6.452c-2.094,2.002-4.063,4.123-5.981,6.293
	c-0.505,0.223-0.678,0.855-1.24,1.009c-0.872,1.043-1.684,2.141-2.752,3.004c-0.417,0.501-0.834,1.002-1.251,1.503
	c-0.324,0.274-0.648,0.549-0.973,0.823c-0.962,1.089-1.849,2.251-3.024,3.135c-0.283,0.187-0.518,0.404-0.505,0.782
	c-0.661,0.599-1.322,1.198-1.983,1.796c-0.084,0.163-0.168,0.325-0.251,0.488c-0.586,0.578-1.172,1.155-1.758,1.733
	c-0.087,0.154-0.175,0.308-0.263,0.463c-0.571,0.534-1.142,1.068-1.714,1.602c-0.706,0.855-1.413,1.709-2.278,2.414
	c-0.252,0.33-0.503,0.659-0.755,0.989l0,0c-0.509,0.22-0.673,0.862-1.24,1.01c-0.493,0.737-1.073,1.396-1.761,1.958
	c-0.574,0.776-1.239,1.466-1.981,2.082c-0.254,0.321-0.508,0.642-0.762,0.963c-0.384,0.349-0.769,0.698-1.153,1.048
	c-0.632,0.799-1.291,1.572-2.091,2.21c-0.501,0.581-1.003,1.162-1.504,1.743c-0.157,0.109-0.314,0.217-0.471,0.326
	c-0.511,0.544-1.022,1.088-1.533,1.632c-0.433,0.563-0.848,1.145-1.49,1.5c-0.253,0.344-0.506,0.687-0.759,1.031
	c-0.322,0.279-0.644,0.557-0.965,0.836c-0.619,0.772-1.259,1.524-2.031,2.151c-0.253,0.329-0.507,0.658-0.76,0.987
	c-0.324,0.276-0.647,0.552-0.971,0.828c-0.416,0.502-0.832,1.005-1.248,1.507c-0.077,0.013-0.153,0.03-0.228,0.049
	c-0.371,0.459-0.743,0.918-1.114,1.377c-0.225,0.17-0.45,0.341-0.675,0.511c-0.57,0.775-1.242,1.454-1.975,2.074
	c-0.604,0.703-1.207,1.406-1.81,2.108c-0.073,0.014-0.146,0.027-0.219,0.038c-0.662,0.854-1.402,1.634-2.227,2.333
	c-0.849,0.962-1.698,1.925-2.547,2.887c-1.236,1.281-2.471,2.561-3.707,3.842c-1.414,1.505-2.827,3.01-4.241,4.516
	c-1.337,1.408-2.673,2.815-4.01,4.223c-1.184,1.062-2.238,2.246-3.267,3.455c-1.115,1.001-2.147,2.081-3.095,3.242c0,0,0,0,0,0
	c-1.127,1.187-2.255,2.375-3.382,3.562c-1.747,1.84-3.495,3.68-5.242,5.521c0,0,0,0,0,0c0,0,0,0,0,0
	c-1.417,1.495-2.835,2.989-4.252,4.484c-1.422,1.486-2.843,2.972-4.265,4.458c-1.333,1.416-2.667,2.833-4,4.249
	c-1.192,1.054-2.253,2.232-3.271,3.451c-1.411,1.339-2.78,2.716-4.012,4.225h0c-1.652,1.631-3.32,3.247-4.795,5.046c0,0,0,0,0,0
	c-1.55,1.347-2.751,3.054-4.41,4.289c0,0.167,0,0.333,0,0.5c0,3.082,0,6.165,0,9.247c0,2.083,0,4.165,0,6.248
	c0,1.833,0,3.666,0,5.498c0,2.083,0,4.165,0,6.248c0,2.583,0,5.165,0,7.748c0,3.166,0,6.331,0,9.497c0,2.749,0,5.498,0,8.247
	c0,2.333,0,4.665,0,6.998c0,2.166,0,4.332,0,6.498c0,2.832,0,5.665,0,8.497c0,2.666,0,5.332,0,7.997c0,1.999,0,3.999,0,5.998
	c0,10.247-0.003,20.493,0.015,30.74c0.001,0.324-0.282,0.775,0.235,1c1.358-1.737,3.036-3.167,4.573-4.732
	c3.784-3.853,7.599-7.676,11.402-11.512l0,0h0c0.738-0.675,1.475-1.351,2.212-2.026c0.261-0.324,0.522-0.648,0.783-0.972h0
	c1.416-1.251,2.753-2.58,4.002-3.998c0.154-0.093,0.309-0.187,0.463-0.28c1.262-1.324,2.524-2.647,3.786-3.971
	c0.239-0.178,0.479-0.355,0.718-0.533c1.073-0.608,2.055-1.301,2.463-2.528c0.02,0,0.035,0.008,0.055,0.007
	c0.245-0.03,0.452-0.143,0.642-0.294c0.853-0.985,2.055-1.661,2.587-2.93c0.057-0.097,0.115-0.194,0.172-0.291
	c0.044,0.002,0.082,0.016,0.129,0.012c1.333-0.603,2.058-1.891,3.138-2.778c0.328-0.515,1.067-0.76,1.089-1.475
	c0.012,0,0.022,0.003,0.034,0.003c1.17-0.653,2.106-1.536,2.71-2.746c0.464-0.748,1.317-1.154,1.715-1.959
	c0.834-0.753,1.669-1.506,2.503-2.259c0.512-0.577,1.025-1.153,1.537-1.73c0.82-0.756,1.641-1.513,2.461-2.269
	c0.179-0.244,0.357-0.487,0.536-0.731c1.004-0.828,1.924-1.74,2.749-2.747l0,0c0.154-0.091,0.308-0.182,0.462-0.273
	c0.872-0.931,1.744-1.863,2.616-2.794c0.061,0.007,0.121,0.017,0.188,0.016c0.629-0.138,0.972-0.664,1.418-1.048
	c0.834-0.853,1.701-1.675,2.514-2.547c0.251-0.27,0.715-0.492,0.55-0.98c0.266-0.086,0.487-0.255,0.718-0.404
	c1.402-1.219,2.757-2.483,3.906-3.949c0.02-0.119,0.011-0.236-0.028-0.351c-0.002-0.004-0.005-0.007-0.007-0.01
	c1.302-1.239,2.605-2.478,3.907-3.717c0.247-0.312,0.493-0.623,0.74-0.935c1.086-1.022,2.173-2.044,3.259-3.066
	c0.329-0.394,0.659-0.788,0.988-1.183c0,0,0,0,0,0c0,0,0,0,0,0c1.171-0.999,2.263-2.077,3.255-3.256l0,0
	c0.084-0.022,0.169-0.044,0.253-0.066c1.248-1.311,2.496-2.623,3.744-3.934l0,0c0.585-0.521,1.17-1.042,1.755-1.563
	c0.914-0.979,1.828-1.958,2.742-2.937c0.571-0.506,1.141-1.012,1.712-1.518c0.681-0.681,1.362-1.362,2.044-2.043
	c0.164-0.229,0.328-0.459,0.491-0.688c0.169-0.105,0.337-0.21,0.506-0.315c0.151-0.151,0.303-0.303,0.454-0.455
	c1.266-1.264,2.531-2.529,3.797-3.793c0.247-0.312,0.493-0.624,0.74-0.937c1.248-1.185,2.496-2.37,3.744-3.555
	c0-0.061-0.002-0.123-0.005-0.184v0c0,0,0,0,0,0c1.007-0.831,1.932-1.745,2.757-2.759h0c0.57-0.506,1.14-1.012,1.711-1.519
	c0.596-0.66,1.192-1.321,1.788-1.981l0,0c0.653-0.59,1.306-1.179,1.96-1.769c0.76-0.824,1.521-1.647,2.281-2.471h0
	c0.839-0.776,1.678-1.552,2.517-2.328c0.569-0.644,1.138-1.289,1.707-1.933c1.08-1.005,2.16-2.01,3.24-3.015
	c0.18-0.244,0.359-0.487,0.539-0.731c1.487-1.423,2.973-2.845,4.46-4.268c0.26-0.324,0.52-0.647,0.78-0.971
	c1.668-1.497,3.255-3.075,4.748-4.748c0.244-0.187,0.487-0.375,0.731-0.562c0.08-0.15,0.161-0.301,0.241-0.451
	c0.699-0.734,1.398-1.467,2.096-2.201c1.545-1.189,2.842-2.634,4.173-4.044l0,0l0,0c1.49-1.495,2.979-2.99,4.469-4.485
	c1.614-1.552,3.287-3.045,4.749-4.749c1.921-1.916,3.843-3.832,5.764-5.748c1.666-1.666,3.333-3.332,4.999-4.998l0,0h0
	c0.626-0.628,1.252-1.257,1.878-1.885l0,0c0.85-0.737,1.679-1.495,2.384-2.376c1.583-1.583,3.166-3.166,4.749-4.749
	c1.749-1.749,3.499-3.499,5.248-5.248c2.106-2.013,4.21-4.028,6.175-6.182h0c2.186-2.183,4.373-4.367,6.559-6.55
	c0.188-0.163,0.386-0.315,0.562-0.491c24.209-24.203,48.416-48.408,72.616-72.619c0.248-0.248,0.647-0.412,0.633-0.863
	C213.259,0.006,170.77,0.006,128.281,0.006z"/>
<linearGradient id="SVGID_00000088108162683190641480000005563500135336868778_" gradientUnits="userSpaceOnUse" x1="-33.4118" y1="101.4888" x2="98.1756" y2="-30.0986">
	<stop  offset="0" style="stop-color:#0094D4"/>
	<stop  offset="0.7566" style="stop-color:#7F6EE2"/>
</linearGradient>
<path fill="url(#SVGID_00000088108162683190641480000005563500135336868778_)" d="M81.042,0.006c-1.833,0-3.666,0-5.499,0
	c-1.583,0-3.166,0-4.749,0c-2,0-3.999,0-5.999,0c-1.75,0-3.499,0-5.249,0c-1.333,0-2.666,0-3.999,0c-1.416,0-2.833,0-4.249,0
	c-1.5,0-2.999,0-4.499,0c-1.333,0-2.666,0-3.999,0s-2.666,0-3.999,0c-1.333,0-2.666,0-3.999,0c-1.416,0-2.833,0-4.249,0
	c-1.333,0-2.666,0-3.999,0c-1.25,0-2.499,0-3.749,0c-1.083,0-2.166,0-3.249,0c-1.083,0-2.166,0-3.249,0c-1.166,0-2.333,0-3.499,0
	c-1.333,0-2.666,0-3.999,0c-1.25,0-2.499,0-3.749,0c-1,0-2,0-2.999,0c-2,0-2,0-2,1.999c0,0.167,0,0.333,0,0.5
	c0,1.333,0,2.666,0,3.999c0,1.333,0,2.666,0,3.999c0,1.5,0,2.999,0,4.499c0,39.987,0,79.975,0,119.962
	c0.619,0.153,0.88-0.364,1.213-0.688c1.158-1.127,2.3-2.271,3.429-3.427c1.379-1.862,3.191-3.312,4.751-5.003
	c1.145-1.587,2.657-2.827,4.001-4.226c1.083-1.171,2.049-2.45,3.256-3.505c1.456-1.298,2.566-2.924,3.997-4.246
	c1.495-1.424,2.86-2.972,4.248-4.497c1.44-1.48,2.965-2.878,4.254-4.501c1.8-1.777,3.567-3.587,5.237-5.489
	c1.148-1.207,2.386-2.325,3.493-3.571c0.85-1.211,2.003-2.136,3.017-3.192c1.201-1.055,2.059-2.429,3.248-3.495
	c1.394-1.357,2.729-2.769,3.996-4.245c1.415-1.501,3.001-2.841,4.256-4.493c1.233-1.282,2.499-2.531,3.763-3.781
	c0.703-1.158,1.963-1.867,2.52-3.14c0-0.004-0.001-0.007-0.001-0.011c1.07-0.359,1.675-1.214,2.207-2.146
	c0.036,0.008,0.072,0.019,0.116,0.009c0.626-0.715,1.495-1.243,1.74-2.249c0.006,0.002,0.01,0.006,0.017,0.008
	c1.029-0.367,1.708-1.087,2.113-2.082c0.334,0.067,0.534-0.216,0.775-0.388c0.39-0.465,0.818-0.908,0.947-1.527
	c0.094,0.007,0.186-0.003,0.274-0.042c0.473-0.42,1.095-0.728,1.119-1.479c0.526,0.023,0.801-0.393,1.148-0.682
	c0.238-0.341,0.722-0.557,0.608-1.074c1.097-0.391,1.603-1.331,2.114-2.265c0.468-0.028,0.717-0.416,1.039-0.682
	c0.31-0.344,0.617-0.689,0.679-1.174c0.932,0.006,1.231-0.744,1.593-1.417c0.002-0.054-0.007-0.101-0.01-0.151
	c0.751-0.235,1.122-0.827,1.343-1.561c0-0.005-0.003-0.009-0.003-0.014c0.22,0.056,0.409-0.038,0.591-0.16
	c0.469-0.598,1.339-0.901,1.379-1.812c0.01,0.004,0.017,0.01,0.027,0.013c1.104-0.359,1.717-1.158,2.039-2.219
	c0.6-0.109,0.92-0.622,1.347-0.977c0.309-0.352,0.708-0.647,0.737-1.172c1.025-0.281,1.599-1.04,2.007-1.974
	c-0.006-0.035-0.025-0.061-0.033-0.094c0.977-0.25,1.327-1.121,1.778-1.891c0.001-0.006-0.001-0.012,0-0.018
	c0.612,0.038,0.837-0.573,1.258-0.853c0.241-0.339,0.715-0.557,0.608-1.074c1.293-0.371,1.781-1.496,2.371-2.525
	c0.832-0.172,1.191-0.953,1.778-1.44c0.143-0.186,0.251-0.389,0.281-0.625c0.881-0.134,1.191-0.948,1.681-1.546
	c0.103-0.191,0.213-0.38,0.145-0.607c0.996-0.188,1.422-1.086,2.08-1.694c0.16-0.263,0.344-0.515,0.385-0.828
	c0.006,0.006,0.012,0.012,0.018,0.018c1.575-0.579,2.284-1.982,3.118-3.264c0.47-0.023,0.718-0.415,1.044-0.675
	c0.352-0.529,1.131-0.774,1.082-1.568c1.437-0.515,2.071-1.749,2.706-2.983c0.005,0.002,0.009,0.005,0.013,0.007
	c0.697,0.018,0.99-0.587,1.444-0.941c2.021-2.059,3.86-4.293,5.995-6.241c1.009-1.268,2.133-2.429,3.293-3.557
	c1.04-1.011,2.084-2.021,2.81-3.299c1.037-1.119,2.09-2.224,3.107-3.361c2.17-2.427,4.611-4.604,6.629-7.172
	C112.535,0.006,96.789,0.006,81.042,0.006z"/>
</svg>
