<?xml version="1.0" encoding="utf-8"?>
<!-- Generator: Adobe Illustrator 28.4.1, SVG Export Plug-In . SVG Version: 6.00 Build 0)  -->
<svg version="1.1" id="Layer_1" xmlns="http://www.w3.org/2000/svg" xmlns:xlink="http://www.w3.org/1999/xlink" x="0px" y="0px"
	 viewBox="0 0 256 256" enable-background="new 0 0 256 256" xml:space="preserve">
<g>
	
		<linearGradient id="SVGID_1_" gradientUnits="userSpaceOnUse" x1="-302.251" y1="751.7571" x2="-302.2267" y2="751.7327" gradientTransform="matrix(4734.5 0 0 -4745.25 1431038 3567305.75)">
		<stop  offset="0" style="stop-color:#387EB8"/>
		<stop  offset="1" style="stop-color:#366994"/>
	</linearGradient>
	<path fill="url(#SVGID_1_)" d="M127.001,7.195c-61.706,0-57.804,26.681-57.804,26.681v27.724h58.682v8.691H45.826
		c0,0-39.501-4.867-39.501,57.752s34.877,60.072,34.877,60.072H61.34v-29.21c0,0-1.13-34.877,33.895-34.877h58.769
		c0,0,32.783,0.521,32.783-31.74V39.352c0,0,4.971-32.261-59.464-32.261l0,0L127.001,7.195z M94.566,25.768
		c5.825-0.147,10.667,4.456,10.814,10.281s-4.456,10.667-10.281,10.814c-5.825,0.147-10.667-4.456-10.814-10.281
		c0-0.001,0-0.001,0-0.002v-0.174c0-5.827,4.724-10.551,10.551-10.551l0,0L94.566,25.768z"/>
	
		<linearGradient id="SVGID_00000039820958662396051060000013163574675015195569_" gradientUnits="userSpaceOnUse" x1="-302.5851" y1="752.0797" x2="-302.5573" y2="752.0554" gradientTransform="matrix(4734.5 0 0 -4745.25 1432688 3568912)">
		<stop  offset="0" style="stop-color:#FFE052"/>
		<stop  offset="1" style="stop-color:#FFC331"/>
	</linearGradient>
	<path fill="url(#SVGID_00000039820958662396051060000013163574675015195569_)" d="M128.739,248.892
		c61.706,0,57.804-26.768,57.804-26.768v-27.637H127.87v-8.691h82.304c0,0,39.501,4.415,39.501-57.839s-34.877-60.072-34.877-60.072
		h-20.398v28.828c0,0,1.13,34.877-33.895,34.877H101.71c0,0-32.809-0.495-32.809,31.766v53.293c0,0-4.971,32.261,59.464,32.261
		h0.348L128.739,248.892z M161.174,230.232c-5.825,0.147-10.667-4.456-10.814-10.281s4.456-10.667,10.281-10.814
		c5.825-0.147,10.667,4.456,10.814,10.281c0,0.001,0,0.001,0,0.002v0.261c0,5.827-4.724,10.551-10.551,10.551c0,0,0,0,0,0h0.261
		H161.174z"/>
</g>
</svg>
